# xmcd
#
# Track frame offsets: 
#        183
#        22063
#        36273
#        68108
#        85123
#        96670
#        113115
#        122668
#        142595
#        161915
#
# Disc length: 2502 seconds
#
# Revision: 8
# Processed by: cddbd v1.5.2PL0 Copyright (c) Steve Scherf et al.
# Submitted via: ExactAudioCopy v0.95b3
#
DISCID=8509c40a
DTITLE=Pungent Stench - [1990] For God Your Soul ... For Me Your Flesh
DTITLE=[NB 029CD]
DYEAR=1990
DGENRE=Death Metal
TTITLE0=Intro , Extreme Defortmity
TTITLE1=Hypnos
TTITLE2=For God Your Soul ... For Me Your Flesh
TTITLE3=Just Let Me Rot
TTITLE4=Pungent Stench
TTITLE5=Bonesawer
TTITLE6=Embalmed In Sulphuric Acid
TTITLE7=Blood, Pus And Gastric Juice
TTITLE8=Suspended Animation
TTITLE9=A Small Lunch
EXTD=YEAR: 1990
EXTT0=
EXTT1=
EXTT2=
EXTT3=
EXTT4=
EXTT5=
EXTT6=
EXTT7=
EXTT8=
EXTT9=
PLAYORDER=
